<?xml version="1.0" encoding="utf-8"?>
<!-- Generator: Adobe Illustrator 22.1.0, SVG Export Plug-In . SVG Version: 6.00 Build 0)  -->
<svg version="1.1" id="Layer_2" xmlns="http://www.w3.org/2000/svg" xmlns:xlink="http://www.w3.org/1999/xlink" x="0px" y="0px"
	 viewBox="-22 100 870.5 870.5" style="enable-background:new 0 0 827.2 1070.5;" xml:space="preserve">
<style type="text/css">
	.st0{fill:#FFFFFF;stroke:#000000;stroke-width:4;stroke-miterlimit:10;}
	.st1{fill:#EE3529;stroke:#000000;stroke-width:2;stroke-miterlimit:10;}
	.st2{fill:#FFFFFF;stroke:#000000;stroke-width:2;stroke-miterlimit:10;}
	.st3{fill:#FFFFFF;}
</style>
<rect width="870.5" height="1070.5"/>
<circle class="st0" cx="413.6" cy="535.2" r="311.8"/>
<polygon class="st1" points="413.9,802.3 616.1,339 211.8,339 "/>
<polygon class="st2" points="413.9,701.6 551.5,386.3 276.4,386.3 "/>
<rect x="158.1" y="430" width="510.7" height="109.5"/>
<g>
	<path class="st3" d="M242,493.1l-25.1-41.6h24.3l11.9,24.3l12.4-24.3h24.1L264,493.1v24.3h-22V493.1z"/>
	<path class="st3" d="M318.2,451.4h31.3l10.2,38.8h0.2l10.2-38.8h31.3v65.9h-20.8v-42.3h-0.2L368,517.3h-16.4l-12.4-42.3H339v42.3
		h-20.8V451.4z"/>
	<path class="st3" d="M483.7,476c-0.4-2.4-2.4-9.7-11.5-9.7c-10.3,0-13.6,9.2-13.6,18.1s3.3,18.1,13.6,18.1c7.4,0,10.3-4.8,11.6-11
		h21.6c0,13.3-11.7,27.4-32.6,27.4c-23.1,0-36.2-15-36.2-34.5c0-20.8,14.2-34.5,36.2-34.5c19.6,0.1,30.4,9.6,32.3,26.1H483.7z"/>
	<path class="st3" d="M560.4,451.4h21.5l26,65.9h-22.8l-3-9.4h-22.7l-3.2,9.4h-22.1L560.4,451.4z M577.7,493.8l-6.4-20.3h-0.2
		l-6.9,20.3H577.7z"/>
</g>
<g>
	<g>
		<path class="st3" d="M163.6,847.3c11.5-15.2,23-30.5,34.5-45.7c2,1.5,4,3,6,4.6c-4.7,6.3-9.4,12.5-14.2,18.8
			c7.9,6,15.8,12,23.8,17.9c4.7-6.3,9.4-12.5,14.2-18.8c2,1.5,4,3,6,4.6c-11.5,15.2-23,30.5-34.5,45.7c-2-1.5-4-3-6-4.6
			c5.4-7.2,10.8-14.4,16.3-21.5c-7.9-6-15.8-12-23.8-17.9c-5.4,7.2-10.8,14.4-16.3,21.5C167.6,850.3,165.6,848.8,163.6,847.3z"/>
	</g>
</g>
<g>
	<g>
		<path class="st3" d="M168.3,296c-12.3-14.6-24.5-29.2-36.8-43.9c2.9-2.4,5.8-4.9,8.7-7.3c12.1,7.4,24.3,14.9,36.4,22.3
			c3.4,2.1,5.9,3.7,7.5,4.7c-0.8-2-2-5-3.6-9c-5-13.1-10.1-26.2-15.1-39.3c2.6-2.2,5.2-4.4,7.8-6.6c12.3,14.6,24.5,29.2,36.8,43.9
			c-1.9,1.6-3.7,3.1-5.6,4.7c-10.3-12.2-20.5-24.5-30.8-36.7c6,15.8,12,31.6,18.1,47.4c-1.7,1.5-3.5,2.9-5.2,4.4
			c-14.7-8.9-29.3-17.8-44-26.7c10.4,12.4,20.9,24.9,31.3,37.3C172,292.8,170.2,294.4,168.3,296z"/>
	</g>
</g>
<g>
	<g>
		<path class="st3" d="M216.5,255.5c-3.5-20.1-7.1-40.3-10.6-60.4c2.3-1.4,4.7-2.8,7-4.2c16.5,12.4,33,24.7,49.5,37.1
			c-2.5,1.5-4.9,3-7.4,4.4c-4.9-3.8-9.8-7.6-14.6-11.4c-6.8,4.1-13.7,8.2-20.5,12.3c1.2,6,2.3,12.1,3.5,18.1
			C221.1,252.7,218.8,254.1,216.5,255.5z M218.6,226.8c5.6-3.3,11.1-6.7,16.7-10c-4.4-3.5-8.9-7-13.3-10.5c-4-3.2-7.2-5.9-9.6-8.1
			c1.3,3.5,2.3,7.2,3,11C216.4,215.1,217.5,221,218.6,226.8z"/>
	</g>
</g>
<g>
	<g>
		<path class="st3" d="M268.6,225.2c-7.2-17.7-14.4-35.4-21.6-53c2.4-1,4.8-2,7.2-2.9c14.9,10.1,29.9,20.2,44.8,30.3
			c-5.7-13.9-11.3-27.8-17-41.6c2.2-0.9,4.5-1.8,6.7-2.7c7.2,17.7,14.4,35.4,21.6,53c-2.4,1-4.8,2-7.2,2.9
			c-14.9-10.1-29.9-20.2-44.8-30.3c5.7,13.9,11.3,27.8,17,41.7C273.1,223.4,270.8,224.3,268.6,225.2z"/>
	</g>
</g>
<g>
	<g>
		<path class="st3" d="M359.6,176.3c2.6,0,5.2,0,7.8,0c0,6.4-1.7,11.7-4.9,15.9c-3.2,4.2-7.7,7-13.5,8.4c-6,1.5-11.2,1.5-15.5,0
			c-4.4-1.5-8.1-4.3-11.2-8.4c-3.1-4.1-5.3-8.9-6.7-14.2c-1.4-5.8-1.6-11.1-0.5-16c1.1-4.9,3.5-8.9,7-12.2c3.5-3.3,7.7-5.5,12.6-6.7
			c5.6-1.4,10.6-1.1,15.1,0.7c4.5,1.9,8.1,5.2,10.9,10c-2.3,1.2-4.5,2.3-6.8,3.5c-2.3-3.7-4.9-6.2-7.8-7.4c-2.9-1.2-6.2-1.4-9.9-0.5
			c-4.3,1.1-7.6,3-9.9,5.7c-2.4,2.8-3.7,6-4,9.8c-0.3,3.7,0,7.4,0.9,11.1c1.2,4.7,2.9,8.7,5.2,11.9c2.3,3.2,5.1,5.3,8.4,6.3
			c3.3,1,6.7,1.1,10.1,0.3c4.1-1,7.3-3.1,9.6-6.2C358.7,185.2,359.7,181.2,359.6,176.3z"/>
	</g>
</g>
<g>
	<g>
		<path class="st3" d="M379.4,194.1c0-19.1,0-38.2,0-57.3c2.5,0,5.1,0,7.6,0c0,7.8,0,15.7,0,23.5c9.9,0,19.8,0,29.8,0
			c0-7.8,0-15.7,0-23.5c2.5,0,5.1,0,7.6,0c0,19.1,0,38.2,0,57.3c-2.5,0-5.1,0-7.6,0c0-9,0-18,0-27c-9.9,0-19.8,0-29.8,0
			c0,9,0,18,0,27C384.5,194.1,381.9,194.1,379.4,194.1z"/>
	</g>
</g>
<g>
	<g>
		<path class="st3" d="M440.8,195c1.8-19,3.6-38,5.4-57c13.7,1.3,27.5,2.6,41.2,3.9c-0.2,2.2-0.4,4.5-0.6,6.7
			c-11.2-1.1-22.5-2.1-33.7-3.2c-0.5,5.8-1.1,11.6-1.6,17.5c10.5,1,21,2,31.5,3c-0.2,2.2-0.4,4.5-0.6,6.7c-10.5-1-21-2-31.5-3
			c-0.6,6.5-1.2,12.9-1.8,19.4c11.7,1.1,23.3,2.2,35,3.3c-0.2,2.2-0.4,4.5-0.6,6.7C469.2,197.6,455,196.3,440.8,195z"/>
	</g>
</g>
<g>
	<g>
		<path class="st3" d="M495.5,184.1c2.4,0.4,4.7,0.8,7.1,1.2c-0.4,2.9-0.2,5.3,0.5,7.4c0.7,2.1,2.2,4,4.5,5.8c2.2,1.7,4.9,3,8.1,3.8
			c2.8,0.7,5.4,0.9,7.7,0.7c2.4-0.3,4.2-1,5.7-2.2c1.4-1.2,2.4-2.6,2.8-4.3c0.5-1.7,0.3-3.4-0.3-4.9c-0.7-1.6-2.1-3.1-4.1-4.6
			c-1.3-1-4.4-2.7-9.2-5.3c-4.8-2.5-8-4.6-9.8-6.2c-2.3-2.1-3.8-4.3-4.6-6.7c-0.8-2.4-0.8-4.9-0.2-7.4c0.7-2.8,2.2-5.2,4.4-7.2
			c2.2-2,5-3.3,8.4-3.7c3.4-0.5,6.9-0.2,10.7,0.7c4.1,1.1,7.6,2.7,10.4,4.8c2.8,2.1,4.7,4.7,5.7,7.7c1,3,1.2,6.2,0.5,9.4
			c-2.4-0.4-4.8-0.9-7.2-1.3c0.5-3.6-0.1-6.6-1.8-8.9c-1.7-2.4-4.7-4.1-9-5.2c-4.4-1.1-7.9-1.2-10.3-0.1c-2.5,1.1-4,2.8-4.6,5.1
			c-0.5,2-0.2,3.8,0.9,5.5c1.1,1.7,4.4,3.9,10,6.8c5.6,2.9,9.4,5.1,11.4,6.7c2.8,2.3,4.7,4.8,5.7,7.5c0.9,2.7,1,5.5,0.3,8.5
			c-0.8,3-2.3,5.5-4.7,7.7c-2.4,2.2-5.3,3.6-8.9,4.2c-3.5,0.6-7.3,0.4-11.2-0.6c-5-1.3-9-3.1-12-5.5c-3-2.3-5.1-5.2-6.3-8.7
			C494.8,191.4,494.6,187.9,495.5,184.1z"/>
	</g>
</g>
<g>
	<g>
		<path class="st3" d="M556.6,223.7c7.7-15,15.4-29.9,23.1-44.9c-5.6-2.9-11.2-5.8-16.8-8.6c1-2,2.1-4,3.1-6
			c13.4,6.9,26.9,13.9,40.3,20.8c-1,2-2.1,4-3.1,6c-5.6-2.9-11.2-5.8-16.8-8.7c-7.7,15-15.4,29.9-23.1,44.9
			C561.1,226,558.8,224.9,556.6,223.7z"/>
	</g>
</g>
<g>
	<g>
		<path class="st3" d="M588.3,241.1c10.9-15.7,21.8-31.3,32.8-47c11.3,7.9,22.6,15.8,34,23.7c-1.3,1.8-2.6,3.7-3.9,5.5
			c-9.2-6.4-18.5-12.9-27.7-19.3c-3.3,4.8-6.7,9.6-10,14.4c8.7,6,17.3,12.1,26,18.1c-1.3,1.8-2.6,3.7-3.8,5.5
			c-8.7-6-17.3-12.1-26-18.1c-3.7,5.3-7.4,10.7-11.1,16c9.6,6.7,19.2,13.4,28.8,20.1c-1.3,1.8-2.6,3.7-3.9,5.5
			C611.6,257.4,599.9,249.2,588.3,241.1z"/>
	</g>
</g>
<g>
	<g>
		<path class="st3" d="M632.6,271c13.3-13.7,26.6-27.4,39.8-41.1c6.1,5.9,12.2,11.8,18.2,17.7c3.7,3.6,6.1,6.6,7.3,9.2
			c1.2,2.6,1.5,5.4,0.8,8.3c-0.7,3-2.1,5.6-4.3,7.9c-2.8,2.9-6.2,4.5-10,4.6c-3.8,0.2-8-1.4-12.5-4.7c0.8,2.1,1.2,3.8,1.3,5.2
			c0.2,3-0.1,6.3-0.8,9.8c-1.2,6-2.5,12.1-3.7,18.1c-2.3-2.2-4.6-4.4-6.8-6.6c0.9-4.6,1.9-9.2,2.8-13.8c0.8-4,1.3-7.2,1.6-9.5
			c0.2-2.3,0.2-4.1-0.1-5.4c-0.3-1.3-0.8-2.5-1.4-3.5c-0.5-0.7-1.4-1.8-2.8-3.1c-2.1-2-4.2-4.1-6.3-6.1
			c-5.9,6.1-11.8,12.2-17.7,18.3C636.3,274.5,634.5,272.7,632.6,271z M660.3,253.3c3.9,3.8,7.8,7.6,11.7,11.3c2.5,2.4,4.7,4,6.6,4.9
			c1.9,0.8,3.8,1.1,5.6,0.6c1.8-0.4,3.4-1.3,4.7-2.6c1.9-1.9,2.7-4.2,2.5-6.9c-0.2-2.6-1.8-5.4-4.9-8.4c-4.3-4.2-8.7-8.4-13-12.6
			C669.1,244.2,664.7,248.7,660.3,253.3z"/>
	</g>
</g>
<g>
	<g>
		<path class="st3" d="M224.4,888.7c14.4-14.5,28.8-29,43.3-43.5c2.5,1.1,5,2.2,7.5,3.3c-0.6,20.6-1.1,41.2-1.7,61.9
			c-2.6-1.2-5.3-2.3-7.9-3.5c0.3-6.2,0.6-12.4,0.9-18.6c-7.3-3.2-14.6-6.5-21.9-9.7c-4.3,4.4-8.5,8.9-12.8,13.3
			C229.3,890.9,226.8,889.8,224.4,888.7z M249,873.9c5.9,2.6,11.8,5.2,17.8,7.8c0.3-5.6,0.6-11.3,0.9-16.9c0.3-5.1,0.6-9.3,1.1-12.5
			c-2.2,3.1-4.6,6-7.2,8.8C257.4,865.3,253.2,869.6,249,873.9z"/>
	</g>
</g>
<g>
	<g>
		<path class="st3" d="M298.4,918.3c4.1-18.7,8.1-37.3,12.2-56c8.3,1.8,16.5,3.6,24.8,5.4c5,1.1,8.7,2.4,11,4
			c2.4,1.6,4.1,3.8,5.1,6.7c1,2.9,1.2,5.9,0.5,8.9c-0.9,4-2.9,7-6,9.2c-3.2,2.2-7.5,3-13,2.6c1.8,1.4,3,2.6,3.9,3.8
			c1.7,2.5,3.2,5.4,4.5,8.8c2.1,5.8,4.3,11.6,6.4,17.3c-3.1-0.7-6.2-1.4-9.3-2c-1.6-4.4-3.2-8.8-4.9-13.3c-1.4-3.8-2.7-6.8-3.7-8.9
			c-1-2.1-2-3.6-2.9-4.6c-1-1-2-1.7-3.1-2.2c-0.8-0.4-2.2-0.7-4.1-1.2c-2.9-0.6-5.7-1.2-8.6-1.9c-1.8,8.3-3.6,16.6-5.4,24.8
			C303.4,919.3,300.9,918.8,298.4,918.3z M312.7,888.6c5.3,1.2,10.6,2.3,15.9,3.5c3.4,0.7,6.1,1,8.2,0.7c2.1-0.3,3.8-1.1,5.1-2.4
			c1.3-1.3,2.2-2.9,2.6-4.7c0.6-2.6,0.1-5-1.5-7.2c-1.6-2.1-4.4-3.6-8.5-4.5c-5.9-1.3-11.8-2.6-17.7-3.9
			C315.4,876.3,314,882.5,312.7,888.6z"/>
	</g>
</g>
<g>
	<g>
		<path class="st3" d="M376.4,935.1c0.1-19.1,0.1-38.2,0.2-57.3c8.5,0,16.9,0.1,25.4,0.1c5.1,0,9,0.5,11.6,1.6
			c2.7,1,4.8,2.9,6.3,5.5c1.6,2.6,2.4,5.5,2.4,8.6c0,4.1-1.3,7.5-4,10.3c-2.6,2.8-6.7,4.5-12.2,5.3c2,1,3.5,1.9,4.6,2.9
			c2.2,2,4.3,4.6,6.3,7.6c3.3,5.2,6.6,10.4,9.9,15.6c-3.2,0-6.4,0-9.5,0c-2.5-4-5-8-7.5-11.9c-2.2-3.4-4-6.1-5.4-7.9
			c-1.4-1.8-2.7-3.1-3.8-3.8c-1.1-0.7-2.3-1.2-3.5-1.5c-0.9-0.2-2.3-0.3-4.2-0.3c-2.9,0-5.9,0-8.8,0c0,8.5-0.1,17-0.1,25.4
			C381.5,935.1,379,935.1,376.4,935.1z M384.1,903.1c5.4,0,10.9,0,16.3,0.1c3.5,0,6.2-0.3,8.1-1c2-0.7,3.4-1.8,4.5-3.4
			c1-1.6,1.5-3.3,1.5-5.1c0-2.7-1-4.9-2.9-6.7c-2-1.8-5.1-2.6-9.3-2.6c-6,0-12.1,0-18.1-0.1C384.2,890.5,384.2,896.8,384.1,903.1z"
			/>
	</g>
</g>
<g>
	<g>
		<path class="st3" d="M452.9,933.5c-2.1-19-4.2-37.9-6.3-56.9c2.5-0.3,5-0.6,7.5-0.8c2.1,19,4.2,37.9,6.3,56.9
			C457.9,932.9,455.4,933.2,452.9,933.5z"/>
	</g>
</g>
<g>
	<g>
		<path class="st3" d="M491.3,928.3c-4.6-18.5-9.2-37.1-13.8-55.6c13.4-3.3,26.8-6.7,40.2-10c0.5,2.2,1.1,4.4,1.6,6.6
			c-10.9,2.7-21.9,5.4-32.8,8.2c1.4,5.7,2.8,11.3,4.2,17c10.2-2.5,20.5-5.1,30.7-7.6c0.5,2.2,1.1,4.3,1.6,6.5
			c-10.2,2.5-20.5,5.1-30.7,7.6c1.6,6.3,3.1,12.6,4.7,18.9c11.4-2.8,22.7-5.6,34.1-8.5c0.5,2.2,1.1,4.4,1.6,6.6
			C519,921.5,505.2,924.9,491.3,928.3z"/>
	</g>
</g>
<g>
	<g>
		<path class="st3" d="M562.9,907.6c-8.1-17.3-16.3-34.5-24.4-51.8c7.7-3.6,15.3-7.2,23-10.8c4.6-2.2,8.3-3.4,11.2-3.6
			c2.8-0.2,5.5,0.5,8.1,2.2c2.5,1.7,4.5,3.9,5.8,6.8c1.7,3.7,2,7.3,0.8,11c-1.2,3.6-4.1,7-8.8,10c2.2,0,4,0.2,5.4,0.6
			c2.9,0.9,5.8,2.3,8.9,4.2c5.2,3.3,10.4,6.6,15.7,9.8c-2.9,1.4-5.7,2.7-8.6,4.1c-4-2.5-8-5-11.9-7.5c-3.5-2.2-6.2-3.8-8.3-4.8
			c-2.1-1-3.8-1.6-5.1-1.8c-1.3-0.2-2.6-0.1-3.8,0.1c-0.9,0.2-2.2,0.7-3.9,1.6c-2.6,1.2-5.3,2.5-7.9,3.7c3.6,7.7,7.2,15.3,10.8,23
			C567.5,905.4,565.2,906.5,562.9,907.6z M556.1,875.4c4.9-2.3,9.8-4.6,14.7-6.9c3.1-1.5,5.4-3,6.9-4.4c1.5-1.5,2.3-3.2,2.6-5
			c0.2-1.9,0-3.6-0.8-5.3c-1.2-2.4-3-4-5.5-4.8c-2.5-0.7-5.7-0.2-9.5,1.6c-5.5,2.6-10.9,5.2-16.4,7.7
			C550.7,864,553.4,869.7,556.1,875.4z"/>
	</g>
</g>
<g>
	<g>
		<path class="st3" d="M618.8,857.8c1.8-1.6,3.6-3.2,5.3-4.8c2,2.1,4,3.5,6.1,4.2c2.1,0.7,4.5,0.8,7.3,0.1c2.8-0.7,5.4-2,8-3.9
			c2.3-1.7,4.1-3.6,5.3-5.6c1.3-2,1.9-3.9,1.8-5.8c0-1.8-0.6-3.5-1.6-4.9c-1.1-1.4-2.4-2.4-4.1-2.8c-1.6-0.4-3.7-0.3-6.2,0.4
			c-1.6,0.4-4.9,1.7-9.8,3.9c-5,2.1-8.6,3.4-11,3.8c-3,0.5-5.7,0.3-8.1-0.6c-2.3-0.9-4.3-2.4-5.9-4.5c-1.7-2.3-2.7-5-2.9-8
			c-0.2-3,0.6-6,2.3-8.9c1.7-2.9,4.1-5.6,7.2-7.9c3.4-2.5,6.8-4.2,10.2-5.1c3.4-0.9,6.6-0.7,9.6,0.3c3,1.1,5.5,2.9,7.7,5.5
			c-1.8,1.6-3.7,3.2-5.5,4.8c-2.5-2.7-5.2-4.1-8.1-4.2c-2.9-0.1-6.1,1.1-9.6,3.8c-3.7,2.8-5.8,5.4-6.5,8c-0.7,2.6-0.3,4.9,1.1,6.7
			c1.2,1.6,2.8,2.6,4.8,2.7c2,0.2,5.8-1,11.6-3.6c5.8-2.6,9.9-4.1,12.3-4.7c3.6-0.8,6.7-0.7,9.4,0.2c2.7,0.9,5,2.6,6.8,5.1
			c1.8,2.4,2.9,5.3,3.1,8.5c0.2,3.2-0.5,6.4-2.2,9.5c-1.7,3.2-4.2,6-7.5,8.4c-4.1,3.1-8.1,5.1-11.8,6c-3.7,0.9-7.3,0.7-10.7-0.5
			C624.1,863,621.2,860.8,618.8,857.8z"/>
	</g>
</g>
</svg>
