<?xml version="1.0" standalone="no"?>
<!DOCTYPE svg PUBLIC "-//W3C//DTD SVG 20010904//EN"
 "http://www.w3.org/TR/2001/REC-SVG-20010904/DTD/svg10.dtd">
<svg version="1.0" xmlns="http://www.w3.org/2000/svg"
 width="700.000000pt" height="700.000000pt" viewBox="0 0 700.000000 700.000000"
 preserveAspectRatio="xMidYMid meet">
<metadata>
Created by potrace 1.11, written by Peter Selinger 2001-2013
</metadata>
<g transform="translate(0.000000,700.000000) scale(0.100000,-0.100000)"
fill="#000000" stroke="none">
<path d="M3230 6475 l0 -235 30 0 30 0 0 110 0 110 120 0 120 0 0 -110 0 -110
30 0 30 0 0 235 0 235 -30 0 -30 0 0 -95 0 -95 -120 0 -120 0 0 95 0 95 -30 0
-30 0 0 -235z"/>
<path d="M3764 6685 c-5 -14 -45 -447 -42 -450 2 -1 64 -7 138 -14 74 -6 152
-14 173 -17 36 -6 37 -5 37 25 0 23 -5 31 -17 32 -10 0 -72 6 -138 12 -115 11
-120 13 -119 35 0 12 1 47 2 78 2 56 2 56 30 51 16 -3 75 -9 130 -13 l102 -7
0 25 c0 31 -9 34 -143 43 -53 4 -99 11 -102 15 -3 4 -2 36 2 70 l6 62 71 -6
c39 -4 99 -9 132 -13 58 -5 62 -4 69 17 4 12 3 25 -2 30 -14 13 -325 37 -329
25z"/>
<path d="M2845 6647 c-52 -20 -85 -48 -111 -94 -47 -79 -30 -215 38 -297 33
-40 96 -75 135 -76 48 0 125 23 154 47 37 32 69 92 69 133 0 27 -3 30 -30 30
-24 0 -31 -5 -35 -27 -19 -90 -70 -130 -154 -120 -58 6 -103 53 -125 128 -31
102 -11 175 55 211 53 29 112 24 153 -13 33 -28 37 -29 61 -16 l27 13 -28 34
c-48 56 -135 76 -209 47z"/>
<path d="M4315 6593 c-39 -11 -75 -45 -86 -83 -19 -62 8 -105 103 -161 99 -58
118 -76 118 -109 0 -52 -53 -77 -125 -59 -61 15 -105 59 -105 105 0 31 -3 34
-30 34 -28 0 -30 -2 -30 -39 0 -98 125 -182 239 -161 55 10 90 35 108 77 31
76 1 122 -134 202 -65 38 -79 51 -81 74 -5 39 23 67 65 67 70 0 133 -46 133
-96 0 -19 22 -33 53 -34 15 0 6 76 -12 106 -32 52 -151 95 -216 77z"/>
<path d="M2473 6547 c-13 -5 -23 -15 -23 -22 0 -6 24 -69 54 -141 29 -71 56
-140 61 -153 6 -19 -27 0 -165 93 -94 64 -176 116 -180 116 -5 0 -20 -4 -34
-10 l-25 -9 80 -198 c102 -249 94 -236 122 -222 12 7 23 13 25 14 2 2 -22 65
-53 141 -79 193 -77 186 -62 178 6 -4 85 -57 173 -117 145 -98 165 -108 193
-102 17 3 31 11 31 16 0 10 -154 390 -167 412 -6 11 -13 12 -30 4z"/>
<path d="M4712 6456 c-10 -22 -7 -25 50 -52 33 -16 62 -32 65 -37 2 -4 -36
-88 -86 -186 l-90 -178 25 -12 c14 -6 27 -11 29 -11 2 0 45 79 95 175 50 96
94 175 96 175 3 0 32 -14 66 -31 58 -30 62 -30 75 -13 7 10 13 21 13 25 0 8
-302 169 -317 169 -6 0 -15 -11 -21 -24z"/>
<path d="M1857 6252 c-20 -12 -26 -23 -23 -37 2 -11 21 -119 42 -240 21 -121
39 -222 41 -224 1 -2 14 4 29 14 28 18 29 32 8 131 -6 30 -3 33 70 78 42 25
80 46 85 46 5 0 31 -18 59 -40 54 -44 67 -47 97 -25 17 13 17 17 5 29 -18 16
-378 286 -382 286 -2 0 -16 -8 -31 -18z m178 -166 c17 -13 28 -26 25 -28 -15
-13 -111 -68 -118 -68 -4 0 -15 40 -24 88 -10 48 -20 97 -24 107 -7 18 22 -3
141 -99z"/>
<path d="M5040 6059 c-69 -99 -126 -184 -128 -189 -2 -4 41 -38 95 -76 54 -37
117 -81 141 -97 41 -30 43 -30 57 -11 8 10 15 22 15 25 0 4 -51 42 -114 85
l-114 79 31 45 c60 89 47 88 163 8 100 -69 105 -71 119 -52 8 10 14 21 15 24
0 3 -45 36 -100 74 -55 37 -100 72 -100 77 0 5 16 31 36 59 l36 50 111 -76
c103 -72 111 -76 124 -59 7 11 13 22 13 26 0 8 -257 189 -268 189 -4 0 -63
-82 -132 -181z"/>
<path d="M1538 6035 c-16 -13 -28 -28 -28 -33 0 -5 31 -90 69 -188 38 -99 68
-180 66 -182 -1 -1 -78 44 -171 101 l-169 104 -37 -30 -37 -29 146 -175 c87
-103 152 -173 161 -171 8 2 19 10 25 19 8 13 -10 40 -94 140 -57 69 -111 133
-119 143 -8 10 61 -27 152 -83 92 -55 171 -101 176 -101 5 0 16 8 25 18 15 17
14 26 -28 133 -71 187 -96 253 -92 248 3 -2 55 -65 117 -139 62 -74 115 -137
117 -139 2 -3 13 5 25 16 21 21 21 22 2 47 -37 49 -269 325 -274 325 -3 0 -17
-11 -32 -24z"/>
<path d="M3345 6019 c-227 -12 -497 -69 -715 -149 -47 -17 -149 -62 -226 -99
-255 -124 -448 -259 -652 -456 -344 -332 -578 -735 -697 -1200 -56 -221 -70
-340 -70 -610 0 -145 5 -276 13 -330 58 -402 187 -745 402 -1068 413 -621
1059 -1020 1800 -1113 137 -17 435 -19 575 -4 840 92 1580 600 1969 1352 422
814 369 1793 -138 2552 -108 162 -186 257 -321 391 -513 514 -1204 775 -1940
734z m475 -49 c562 -80 1052 -321 1441 -709 588 -588 844 -1429 683 -2241
-139 -702 -562 -1298 -1182 -1667 -262 -155 -562 -261 -893 -314 -162 -27
-514 -32 -669 -10 -363 50 -734 182 -1022 364 -384 243 -704 597 -903 1002
-125 255 -194 475 -236 756 -26 178 -29 494 -5 664 75 549 305 1026 681 1414
419 432 956 690 1565 751 105 11 438 4 540 -10z"/>
<path d="M1875 5070 c4 -11 74 -174 156 -362 82 -187 149 -345 149 -349 0 -5
-164 -9 -365 -9 l-365 0 0 -445 0 -445 563 0 562 0 461 -1056 c253 -581 464
-1056 468 -1057 5 -1 216 474 470 1055 l461 1058 560 2 560 3 3 443 2 442
-365 0 c-201 0 -365 3 -365 8 0 4 70 166 155 361 85 195 155 358 155 363 0 4
-736 8 -1636 8 l-1635 0 6 -20z m2649 -547 l-73 -168 -944 -3 -945 -2 -42 97
c-24 54 -56 127 -71 162 -16 35 -29 68 -29 72 0 5 486 9 1089 9 l1089 0 -74
-167z m-392 -376 c50 -29 80 -70 96 -129 l10 -38 -84 0 c-80 0 -85 1 -96 25
-15 34 -69 58 -110 47 -110 -28 -111 -253 0 -287 38 -11 88 12 107 50 l16 35
85 0 86 0 -7 -32 c-11 -51 -31 -83 -75 -121 -93 -80 -271 -81 -374 -2 -113 86
-126 299 -24 404 62 64 115 81 233 78 78 -2 98 -7 137 -30z m-1968 -74 l48
-98 49 98 49 97 96 0 96 0 -14 -22 c-8 -13 -54 -86 -101 -164 l-87 -141 0 -96
0 -97 -90 0 -90 0 0 98 0 99 -95 157 c-52 86 -95 159 -95 161 0 3 42 5 93 5
l92 0 49 -97z m862 -53 c21 -82 41 -150 44 -150 3 0 23 68 44 150 l39 150 123
0 124 0 0 -260 0 -260 -80 0 -80 0 -2 168 -3 167 -50 -167 -49 -168 -66 0 -66
0 -44 153 c-24 83 -47 159 -51 167 -5 8 -9 -60 -9 -152 l0 -168 -80 0 -80 0 0
260 0 260 124 0 123 0 39 -150z m1930 -101 c54 -139 101 -256 102 -260 2 -5
-37 -9 -86 -9 l-90 0 -12 35 -12 35 -93 0 -93 0 -12 -35 -12 -35 -85 0 c-77 0
-85 2 -79 18 4 9 50 126 103 260 l97 242 86 0 87 0 99 -251z m-899 -466 c-2
-5 -127 -290 -277 -635 -150 -346 -275 -627 -276 -625 -2 2 -444 1014 -520
1190 l-33 77 555 0 c305 0 553 -3 551 -7z"/>
<path d="M4738 3910 l-26 -80 54 0 c30 0 54 3 54 8 0 17 -44 152 -49 152 -4 0
-19 -36 -33 -80z"/>
<path d="M5418 5787 l-157 -164 22 -22 21 -21 73 72 73 72 40 -39 c47 -46 50
-71 24 -205 -15 -82 -15 -83 7 -106 12 -13 25 -24 29 -24 10 0 40 150 40 203
l0 48 32 -17 c58 -30 133 -1 163 63 30 62 16 93 -92 204 -53 55 -101 99 -107
99 -6 0 -82 -74 -168 -163z m245 18 c57 -55 67 -70 67 -99 0 -54 -44 -86 -93
-67 -14 5 -53 36 -86 68 l-61 58 46 53 c25 28 49 52 53 52 4 0 37 -29 74 -65z"/>
<path d="M1708 1278 c-35 -46 -99 -129 -141 -184 -72 -96 -75 -103 -58 -118
10 -9 22 -16 28 -16 6 0 34 31 62 69 28 38 57 74 65 80 11 10 80 -34 195 -125
1 -1 -27 -41 -63 -87 l-65 -84 23 -22 23 -22 30 38 c16 21 80 104 141 184
l111 146 -23 23 -24 22 -57 -76 c-38 -50 -61 -73 -70 -68 -30 18 -174 128
-175 133 0 3 25 38 56 78 31 40 55 73 53 74 -2 1 -14 10 -25 20 -21 18 -22 17
-86 -65z"/>
<path d="M5169 1306 c-127 -45 -182 -168 -110 -245 38 -41 83 -41 195 0 103
37 146 36 160 -3 30 -87 -109 -182 -193 -132 -29 17 -31 17 -51 -1 -23 -21
-15 -37 31 -61 69 -35 185 3 245 81 52 69 40 166 -26 200 -42 22 -81 19 -168
-14 -109 -41 -119 -43 -142 -31 -27 14 -27 69 0 103 11 14 40 33 64 42 41 16
46 16 76 0 30 -15 33 -15 51 1 23 21 11 40 -38 61 -39 16 -48 16 -94 -1z"/>
<path d="M4750 1033 c-51 -18 -240 -107 -240 -113 0 -22 189 -405 201 -408 8
-1 23 3 33 11 17 13 16 17 -23 95 -23 45 -41 85 -41 90 0 10 85 52 106 52 18
0 79 -30 156 -77 53 -33 58 -34 92 -22 20 7 36 15 36 19 0 9 -174 109 -202
115 l-27 7 28 28 c88 89 -3 244 -119 203z m64 -74 c32 -25 35 -70 6 -99 -17
-17 -150 -90 -165 -90 -6 0 -65 116 -65 128 0 4 12 13 28 19 15 6 54 23 87 37
73 31 76 31 109 5z"/>
<path d="M2153 831 l-173 -177 32 -12 c31 -11 33 -11 80 43 l48 54 88 -39 87
-39 0 -76 c0 -76 0 -77 31 -90 l31 -13 6 187 c11 294 10 318 -10 324 -10 2
-25 7 -33 10 -10 3 -76 -59 -187 -172z m174 2 c-5 -59 -10 -109 -11 -110 -3
-3 -118 45 -125 52 -2 3 123 146 144 165 0 0 -3 -48 -8 -107z"/>
<path d="M2626 654 c-26 -118 -45 -222 -42 -230 3 -8 16 -14 30 -14 22 0 25 7
41 78 26 123 21 115 69 108 63 -10 87 -34 124 -122 51 -122 54 -128 90 -135
17 -3 32 -3 32 2 0 16 -51 144 -74 185 l-23 41 41 11 c53 14 86 50 93 101 12
91 -31 126 -206 165 -63 14 -117 26 -121 26 -4 0 -28 -97 -54 -216z m232 121
c59 -18 79 -33 87 -65 4 -18 0 -34 -15 -53 -26 -32 -65 -35 -169 -12 l-67 16
15 70 15 71 43 -7 c24 -3 65 -13 91 -20z"/>
<path d="M4177 830 c-82 -21 -151 -41 -155 -44 -9 -10 101 -446 113 -446 16 1
316 78 321 83 3 2 2 16 -1 30 l-7 24 -135 -34 c-74 -19 -136 -33 -138 -31 -5
7 -36 141 -33 144 2 1 55 16 118 31 100 25 115 32 118 51 5 34 -17 35 -126 8
-55 -15 -107 -26 -115 -26 -9 0 -19 18 -26 48 -7 26 -14 54 -17 63 -3 12 20
21 116 44 66 16 125 32 131 36 12 7 4 60 -9 58 -4 0 -74 -18 -155 -39z"/>
<path d="M3771 728 c0 -18 10 -121 22 -228 l22 -195 33 -3 c18 -2 32 1 32 7 0
14 -38 352 -45 409 -6 39 -9 42 -36 42 -26 0 -29 -3 -28 -32z"/>
<path d="M3207 743 c-4 -3 -7 -109 -7 -235 l0 -228 35 0 35 0 0 106 0 107 57
-7 c69 -8 94 -29 160 -133 45 -70 48 -73 85 -73 37 0 38 1 27 23 -25 48 -111
166 -125 171 -21 8 -17 26 7 26 12 0 36 15 55 34 30 30 34 40 34 85 0 67 -35
109 -100 122 -53 10 -254 12 -263 2z m277 -73 c28 -29 29 -65 3 -96 -23 -26
-30 -28 -121 -32 l-96 -4 0 77 0 77 100 -4 c71 -2 103 -7 114 -18z"/>
</g>
</svg>
